<svg enable-background="new 0 0 256 256" viewBox="0 0 256 256" xmlns="http://www.w3.org/2000/svg"><path d="m246.667 51.769h-237.334c-2.761 0-5-2.239-5-5v-32.081c0-5.523 4.477-10 10-10h227.333c5.523 0 10 4.477 10 10v32.081c.001 2.761-2.238 5-4.999 5z" fill="#72c2e9"/><g fill="#f0c020"><circle cx="27.47" cy="28.228" r="6.136"/><circle cx="60.98" cy="28.228" r="6.136"/><circle cx="195.02" cy="28.228" r="6.136"/><circle cx="228.53" cy="28.228" r="6.136"/></g><path d="m238.9 51.77v146.33h-20.31v-115.79c0-5.52-4.47-10-10-10h-161.18c-5.53 0-10 4.48-10 10v115.79h-20.31v-146.33z" fill="#afafaf"/><path d="m208.59 72.31h-9.15v106.83h-34.82c0 3.87-16.39 7-36.62 7s-36.62-3.13-36.62-7h-34.82v-106.83h-9.15c-5.53 0-10 4.48-10 10v115.79h181.18v-115.79c0-5.52-4.47-10-10-10z" fill="#f0c020"/><path d="m199.44 72.31v106.83h-34.82v-12.58c0-3.86-16.39-7-36.62-7s-36.62 3.14-36.62 7v12.58h-34.82v-106.83z" fill="#fff"/><path d="m164.62 166.56v12.58c0 3.87-16.39 7-36.62 7s-36.62-3.13-36.62-7v-12.58c0 6.1 30.28 7 36.62 7 7.13 0 36.62-.98 36.62-7z" fill="#afafaf"/><ellipse cx="128" cy="166.56" fill="#f0c020" rx="36.62" ry="7"/><path d="m146.688 99.245h-37.375c-2.449 0-4.537-1.774-4.934-4.19l-3.732-22.742h54.707l-3.732 22.742c-.397 2.416-2.485 4.19-4.934 4.19z" fill="#72c2e9"/><path d="m141.135 99.245h-26.27v11.755c0 2.267 1.838 4.105 4.105 4.105h18.061c2.267 0 4.105-1.838 4.105-4.105v-11.755z" fill="#afafaf"/><path d="m241.667 233.896h-227.334c-5.523 0-10-4.477-10-10v-20.792c0-2.761 2.239-5 5-5h237.333c2.761 0 5 2.239 5 5v20.792c.001 5.523-4.476 10-9.999 10z" fill="#72c2e9"/><path d="m240.667 225.396h-210.208c-1.381 0-2.5-1.119-2.5-2.5s1.119-2.5 2.5-2.5h207.708v-11.292c0-1.381 1.119-2.5 2.5-2.5s2.5 1.119 2.5 2.5v13.792c0 1.381-1.119 2.5-2.5 2.5zm-220.208 0h-5.125c-1.381 0-2.5-1.119-2.5-2.5s1.119-2.5 2.5-2.5h5.125c1.381 0 2.5 1.119 2.5 2.5s-1.119 2.5-2.5 2.5z" fill="#c5e5fe"/><path d="m44.409 251.313h-24.75c-1.657 0-3-1.343-3-3v-14.417h30.75v14.417c0 1.656-1.343 3-3 3z" fill="#afafaf"/><path d="m236.341 251.313h-24.75c-1.657 0-3-1.343-3-3v-14.417h30.75v14.417c0 1.656-1.343 3-3 3z" fill="#afafaf"/><path d="m88.354 17.978h79.293v20.5h-79.293z" fill="#f0c020"/><path d="m104.5 30.728h47c1.381 0 2.5-1.119 2.5-2.5s-1.119-2.5-2.5-2.5h-47c-1.381 0-2.5 1.119-2.5 2.5s1.119 2.5 2.5 2.5z"/><path d="m123.125 83.279c-1.381 0-2.5 1.119-2.5 2.5v.784c0 1.381 1.119 2.5 2.5 2.5s2.5-1.119 2.5-2.5v-.784c0-1.381-1.119-2.5-2.5-2.5z"/><path d="m132.875 83.279c-1.381 0-2.5 1.119-2.5 2.5v.784c0 1.381 1.119 2.5 2.5 2.5s2.5-1.119 2.5-2.5v-.784c0-1.381-1.119-2.5-2.5-2.5z"/><circle cx="191.35" cy="4.69" r="2.5"/><path d="m246.67 54.27c4.13 0 7.49-3.37 7.5-7.5v-32.08c-.01-6.89-5.61-12.5-12.5-12.5h-40.32c-1.38 0-2.5 1.12-2.5 2.5s1.12 2.5 2.5 2.5h40.32c4.13 0 7.49 3.37 7.5 7.5v32.08c-.01 1.38-1.13 2.5-2.5 2.5h-7.77c-11.24 0-217.928 0-229.571 0-1.37 0-2.49-1.12-2.5-2.5v-32.08c.01-4.13 3.38-7.5 7.5-7.5h167.02c1.38 0 2.5-1.12 2.5-2.5s-1.12-2.5-2.5-2.5h-167.019c-6.89 0-12.49 5.61-12.5 12.5v32.08c.01 4.13 3.37 7.5 7.5 7.5h5.27v141.33h-5.27c-4.13.01-7.49 3.37-7.5 7.5v20.8c.01 6.833 5.519 12.389 12.33 12.491v11.921c0 3.033 2.467 5.5 5.5 5.5h24.75c3.033 0 5.5-2.467 5.5-5.5v-11.912h121.76c1.38 0 2.5-1.13 2.5-2.5 0-1.38-1.12-2.5-2.5-2.5-2.672 0-140.376 0-157.34 0-4.12-.01-7.49-3.38-7.5-7.5v-20.8c.01-1.37 1.13-2.49 2.5-2.5h229.571 7.77c1.37.01 2.49 1.13 2.5 2.5v20.8c-.01 4.12-3.37 7.49-7.5 7.5 0 0-49.841 0-50 0-1.38 0-2.5 1.12-2.5 2.5 0 1.37 1.12 2.5 2.5 2.5h14.421v11.913c0 3.033 2.468 5.5 5.5 5.5h24.75c3.032 0 5.5-2.467 5.5-5.5v-11.922c6.81-.103 12.319-5.659 12.329-12.491v-20.8c-.01-4.13-3.37-7.49-7.5-7.5h-5.27v-141.33zm-201.761 194.043c0 .276-.224.5-.5.5h-24.75c-.276 0-.5-.224-.5-.5v-11.913h25.75zm191.432.5h-24.75c-.275 0-.5-.224-.5-.5v-11.913h25.75v11.913c0 .275-.225.5-.5.5zm-182.281-174.003v59.15c0 1.38 1.12 2.5 2.5 2.5s2.5-1.12 2.5-2.5v-59.15h39.463l3.388 20.649c.597 3.642 3.71 6.285 7.401 6.285h3.053v9.256c0 3.642 2.963 6.604 6.604 6.604h6.53v10.296c0 1.381 1.119 2.5 2.5 2.5s2.5-1.119 2.5-2.5v-10.296h6.53c3.642 0 6.604-2.963 6.604-6.604v-9.255h3.053c3.689 0 6.803-2.643 7.401-6.285l3.388-20.649h39.463v101.83h-29.818v-10.08c0-.185-.023-.364-.061-.537-1.279-8.517-32.66-8.963-39.059-8.963s-37.78.445-39.059 8.963c-.038.174-.061.353-.061.537v10.08h-29.82v-22.68c0-1.38-1.12-2.5-2.5-2.5s-2.5 1.12-2.5 2.5v24.138l-14.15 14.01c0-.584-.006-109.425.011-110.009.123-4.028 3.424-7.272 7.478-7.287.236-.003 6.424-.003 6.661-.003zm64.91 37.794c-.885 0-1.604-.72-1.604-1.604v-9.255h21.27v9.255c0 .885-.72 1.604-1.604 1.604zm-9.658-15.859c-1.23 0-2.268-.881-2.467-2.095l-3.255-19.837h48.82l-3.255 19.836c-.2 1.214-1.237 2.096-2.468 2.096-19.061 0-18.142 0-37.375 0zm-51.724 84.895h32.258c5.415 6.627 32.286 7 38.154 7 5.867 0 32.739-.374 38.154-7h32.258l14.1 13.96h-169.024zm36.292-9.81c8.377 3.463 25.083 4.23 34.12 4.234 9.016.004 25.756-.775 34.12-4.234v6.957c-1.772 1.725-13.382 4.853-34.12 4.853s-32.348-3.128-34.12-4.853zm34.12-.771c-14.94-.021-29.086-1.831-33.623-4.512 2.897-1.767 14.3-4.487 33.623-4.487 19.324 0 30.726 2.72 33.623 4.487-6.369 3.764-25.929 4.523-33.623 4.512zm88.09-88.749v109.797l-14.15-14.01v-103.287h6.65c4.13.01 7.49 3.37 7.5 7.5zm20.31 113.29h-15.31c0-10.571 0-102.624 0-113.29 0-6.893-5.607-12.5-12.5-12.5-5.522 0-155.404 0-161.18 0-6.83 0-12.5 5.564-12.5 12.5v113.29h-15.31v-141.33h216.8z"/><circle cx="181.67" cy="233.9" r="2.5"/><path d="m18.833 28.228c0 4.762 3.874 8.637 8.636 8.637s8.636-3.875 8.636-8.637-3.874-8.636-8.636-8.636-8.636 3.874-8.636 8.636zm12.273 0c0 2.005-1.631 3.637-3.636 3.637s-3.636-1.631-3.636-3.637c0-2.005 1.631-3.636 3.636-3.636s3.636 1.631 3.636 3.636z"/><path d="m52.343 28.228c0 4.762 3.875 8.637 8.637 8.637s8.636-3.875 8.636-8.637-3.874-8.636-8.636-8.636-8.637 3.874-8.637 8.636zm12.273 0c0 2.005-1.631 3.637-3.636 3.637s-3.637-1.631-3.637-3.637c0-2.005 1.631-3.636 3.637-3.636 2.005 0 3.636 1.631 3.636 3.636z"/><path d="m195.021 36.865c4.762 0 8.636-3.875 8.636-8.637s-3.874-8.636-8.636-8.636c-4.763 0-8.637 3.874-8.637 8.636s3.874 8.637 8.637 8.637zm0-12.273c2.005 0 3.636 1.631 3.636 3.636s-1.631 3.637-3.636 3.637-3.637-1.631-3.637-3.637c0-2.005 1.632-3.636 3.637-3.636z"/><path d="m237.167 28.228c0-4.762-3.874-8.636-8.637-8.636s-8.637 3.874-8.637 8.636 3.874 8.637 8.637 8.637 8.637-3.875 8.637-8.637zm-12.273 0c0-2.005 1.632-3.636 3.637-3.636s3.637 1.631 3.637 3.636-1.632 3.637-3.637 3.637-3.637-1.632-3.637-3.637z"/><path d="m88.354 15.478c-1.381 0-2.5 1.119-2.5 2.5v20.5c0 1.381 1.119 2.5 2.5 2.5h79.293c1.381 0 2.5-1.119 2.5-2.5v-20.5c0-1.381-1.119-2.5-2.5-2.5zm76.792 20.5h-74.292v-15.5h74.293v15.5z"/><circle cx="56.56" cy="143.96" r="2.5"/></svg>